<?xml version="1.0" encoding="utf-8"?>
<!-- Generator: Adobe Illustrator 30.0.0, SVG Export Plug-In . SVG Version: 9.03 Build 0)  -->
<svg version="1.1" id="Layer_1" xmlns="http://www.w3.org/2000/svg" xmlns:xlink="http://www.w3.org/1999/xlink" x="0px" y="0px"
	 viewBox="0 0 1000 312" style="enable-background:new 0 0 1000 312;" xml:space="preserve">
<style type="text/css">
	.st0{fill:none;stroke:#000000;stroke-width:5;stroke-miterlimit:100;}
	.st1{fill-rule:evenodd;clip-rule:evenodd;fill:#F8240F;}
	.st2{fill-rule:evenodd;clip-rule:evenodd;}
	.st3{fill-rule:evenodd;clip-rule:evenodd;fill:#02A9F5;}
	.st4{fill:#0ED029;}
</style>
<g id="Rectangle_1">
	<g>
		<rect x="23.96" y="15.7" class="st0" width="954.39" height="280.57"/>
	</g>
</g>
<path class="st1" d="M81.09,141.3c0,0,52.43-23.48,84.52,1.96l-1.57-82.17c0,0-36-31.7-82.96,1.57V141.3z"/>
<path class="st2" d="M175.78,64.61c0,0,42.26,26.61,85.3,1.96l1.96,80.61c0,0-42.26,34.04-87.26,0V64.61z"/>
<path class="st2" d="M175.78,158.91c0,0,52.04,27.78,85.3,0v82.17c0,0-37.17,30.13-85.3,0V158.91z"/>
<path class="st3" d="M79.13,234.43c0,0,48.52-24.65,84.52,2.74l1.96-80.37c0,0-33.65-33.11-86.48-2.59V234.43z"/>
<g>
	<path class="st4" d="M492.12,171.35c-0.88,1.46-2.09,3.67-3.62,6.63c-0.48,1.37-1.34,3.32-2.57,5.84c-0.26,0.4-0.62,0.6-1.05,0.6
		c0.04,0-2.08-0.79-6.36-2.36c-4.28-1.57-7.81-2.35-10.58-2.35c-8.08,0-12.13,3.58-12.13,10.75c0,3.98,2.83,7.45,8.5,10.41
		c9.53,5,14.81,7.87,15.82,8.62c5.67,4.56,8.5,10.7,8.5,18.44c0,9.91-3.89,17.71-11.67,23.41c-6.99,5.13-15.58,7.69-25.77,7.69
		c-4.75,0-7.29-0.53-7.65-1.59c-0.18-1.68-0.57-4.13-1.19-7.36c-0.35-1.33-0.9-3.32-1.65-5.97c-0.13-0.4-0.2-0.77-0.2-1.13
		c0-0.62,0.33-0.93,0.99-0.93c1.05,0,2.67,0.11,4.84,0.33c2.17,0.22,3.81,0.33,4.91,0.33c13.62,0,20.43-4.42,20.43-13.27
		c0-4.33-2.75-8.09-8.24-11.28c-10.02-5.75-15.14-8.73-15.36-8.95c-5.54-4.51-8.3-10.57-8.3-18.17c0-8.22,2.68-14.81,8.04-19.77
		c5.23-4.78,12-7.16,20.3-7.16c3.52,0,7.56,0.58,12.13,1.72c4.96,1.28,8.7,2.83,11.2,4.64C491.68,170.66,491.9,170.95,492.12,171.35
		z"/>
	<path class="st4" d="M548.21,197.55c0,0.97-0.51,3.14-1.52,6.5c-1.01,3.36-1.71,5.04-2.11,5.04c-1.98-0.88-3.97-1.77-5.96-2.65
		c-2-0.88-4.19-1.33-6.56-1.33c-5.4,0-9.91,2.01-13.51,6.04c-3.6,4.02-5.4,8.78-5.4,14.26c0,5.4,1.8,10.06,5.4,14
		c3.69,4.07,8.2,6.1,13.51,6.1c2.94,0,5.84-0.73,8.7-2.19c2.86-1.46,4.11-2.19,3.76-2.19c0.57,0,1.21,1.86,1.91,5.57
		c0.66,3.36,0.99,5.68,0.99,6.96c0,1.37-2.57,2.72-7.71,4.05c-4.31,1.1-7.49,1.66-9.56,1.66c-9.05,0-16.7-3.4-22.94-10.21
		c-6.11-6.63-9.16-14.55-9.16-23.75c0-9.38,2.99-17.33,8.96-23.88c6.15-6.72,13.82-10.08,23-10.08c6.15,0,11.78,1.57,16.87,4.71
		C547.77,196.69,548.21,197.15,548.21,197.55z"/>
	<path class="st4" d="M594.15,195.43c0,4.86-0.33,9.29-0.99,13.27c-0.13,1.02-0.57,1.53-1.32,1.53c-0.92,0-2.32-0.1-4.19-0.3
		c-1.87-0.2-3.29-0.3-4.25-0.3c-5.54,0-9.07,1.57-10.61,4.71c-0.92,1.9-1.38,5.86-1.38,11.87v7.3c0,2.48,0.1,6.24,0.3,11.28
		c0.2,5.04,0.3,8.8,0.3,11.28c0,1.19-0.51,1.79-1.52,1.79c-1.36,0-3.43-0.02-6.2-0.07c-2.77-0.04-4.83-0.07-6.2-0.07
		c-1.01,0-1.52-0.55-1.52-1.66c0-3.58,0.05-8.98,0.17-16.18c0.11-7.21,0.17-12.62,0.17-16.25c0-10.92-1.01-19.7-3.03-26.33
		c-0.09-0.35-0.13-0.62-0.13-0.8c0-0.53,0.29-0.91,0.86-1.13c1.62-0.18,3.91-0.44,6.85-0.8c4.75-0.88,6.94-1.33,6.59-1.33
		c0.7,0,1.16,1.31,1.38,3.91c0.22,2.61,0.61,3.91,1.19,3.91c0.09,0,0.2-0.04,0.33-0.13c1.8-1.15,3.6-2.3,5.4-3.45
		c1.98-1.19,4-2.08,6.06-2.65c1.71-0.53,3.91-0.8,6.59-0.8C592.44,194.03,594.15,194.5,594.15,195.43z"/>
	<path class="st4" d="M618.54,178.38c0,5.44-3.01,8.16-9.03,8.16c-6.11,0-9.16-2.72-9.16-8.16c0-2.43,0.94-4.44,2.83-6.04
		c1.76-1.5,3.87-2.26,6.33-2.26c2.46,0,4.58,0.77,6.36,2.32C617.65,173.96,618.54,175.95,618.54,178.38z M618.07,196.35
		c0,3.41-0.21,8.55-0.63,15.42c-0.42,6.88-0.63,12.04-0.63,15.49c0,3.23,0.07,8.06,0.2,14.49c0.13,6.43,0.2,11.24,0.2,14.43
		c0,0.93-0.4,1.39-1.19,1.39h-12.85c-0.92,0-1.38-0.91-1.38-2.72c0-3.05,0.08-7.64,0.23-13.76c0.15-6.12,0.23-10.73,0.23-13.83
		c0-3.45-0.25-8.62-0.76-15.52s-0.76-12.07-0.76-15.52c0-0.75,0.46-1.13,1.38-1.13c0.79,0,2.01,0.11,3.66,0.33
		c1.65,0.22,2.89,0.33,3.72,0.33c0.83,0,2.08-0.11,3.72-0.33c1.65-0.22,2.89-0.33,3.72-0.33
		C617.7,195.09,618.07,195.51,618.07,196.35z"/>
	<path class="st4" d="M697.03,225.8c0,8.93-2.81,16.69-8.44,23.28c-5.89,6.94-13.2,10.41-21.95,10.41c-5.45,0-10.22-1.7-14.3-5.11
		c-1.85-1.72-3.69-3.47-5.54-5.24c-0.26,0.13-0.44,0.49-0.53,1.06c-0.04,0.26-0.07,2.74-0.07,7.43l-0.07,18.71
		c0,1.42-0.51,2.12-1.52,2.12c-6.77,0-10.77-0.09-12-0.27c-1.01-0.13-1.52-0.71-1.52-1.72c0-5.66,0.04-14.15,0.13-25.47
		c0.09-11.32,0.13-19.81,0.13-25.47c0-10.39-0.66-20.14-1.98-29.25c-0.09-0.53-0.13-0.88-0.13-1.06c0-0.49,0.22-0.8,0.66-0.93
		c1.67-0.09,4.11-0.33,7.32-0.73c4.31-0.8,6.72-1.19,7.25-1.19c0.75,0,1.23,1.33,1.45,3.98c0.13,1.77,0.24,3.52,0.33,5.24
		c0,0.35,0.13,0.71,0.4,1.06c0.31-0.18,0.66-0.49,1.05-0.93c6.15-6.32,12.37-9.48,18.65-9.48c8.7,0,16.04,3.43,22.01,10.28
		C694.16,209.11,697.03,216.87,697.03,225.8z M681.61,225.54c0-5.31-1.65-9.97-4.94-14c-3.47-4.29-7.8-6.43-12.98-6.43
		c-5.1,0-9.27,2.21-12.52,6.63c-2.99,3.98-4.48,8.62-4.48,13.93c0,5.4,1.54,10.08,4.61,14.06c3.38,4.29,7.69,6.43,12.92,6.43
		c5.01,0,9.23-2.23,12.65-6.7C680.03,235.31,681.61,230.67,681.61,225.54z"/>
	<path class="st4" d="M743.96,245.5c0,0.97-0.09,2.3-0.26,3.98c-0.22,2.08-0.35,3.43-0.4,4.05c-0.04,0.8-0.11,1.28-0.2,1.46
		c-0.18,0.31-0.59,0.62-1.25,0.93c-3.6,1.72-9.27,2.59-17,2.59c-10.28,0-15.42-4.69-15.42-14.06c0-3.76,0.09-9.41,0.26-16.95
		c0.18-7.54,0.26-13.19,0.26-16.95c0-1.81-0.9-2.79-2.7-2.92c-1.63,0-3.23-0.02-4.81-0.07c-0.92-0.22-1.38-2.03-1.38-5.44
		c0-1.28,0.09-2.63,0.26-4.05c0.13-1.06,0.83-1.7,2.11-1.92c1.1,0,2.17-0.02,3.23-0.07c2.02-0.09,3.03-1,3.03-2.72
		c0-1.77-0.06-4.47-0.16-8.09c-0.11-3.63-0.17-6.35-0.17-8.16c0-3.23,0.61-4.84,1.85-4.84c0.4,0,4.52,0.69,12.39,2.06
		c1.01,0.13,1.52,0.62,1.52,1.46c0,1.95-0.14,4.86-0.43,8.76c-0.29,3.89-0.43,6.81-0.43,8.75c0,1.28,0.59,1.92,1.78,1.92h15.82
		c0.75,0,1.12,0.27,1.12,0.8s-0.08,1.38-0.23,2.55c-0.15,1.17-0.23,2.05-0.23,2.62c0,0.66,0.02,1.68,0.07,3.05
		c0.04,1.37,0.07,2.39,0.07,3.05c0,0.84-0.62,1.26-1.85,1.26c-1.76,0-4.42-0.12-7.97-0.36c-3.56-0.24-6.22-0.37-7.98-0.37
		c-0.35,0-0.62,1.26-0.79,3.78c-0.22,3.14-0.33,7.54-0.33,13.2v9.88c0,3.8,0.35,6.46,1.05,7.96c1.05,2.3,3.23,3.45,6.52,3.45
		c1.36,0,3.36-0.3,6-0.9c2.64-0.6,4.59-0.9,5.87-0.9C743.7,244.31,743.96,244.71,743.96,245.5z"/>
	<path class="st4" d="M784.23,237.28c0,6.59-2.62,11.87-7.84,15.85c-4.75,3.63-10.52,5.44-17.33,5.44c-2.64,0-4.13-0.07-4.48-0.2
		c-0.75-0.35-1.12-1.44-1.12-3.25c0-0.97-0.12-2.43-0.36-4.38c-0.24-1.95-0.36-3.38-0.36-4.31c0-0.57,0.4-0.95,1.19-1.13
		c0.57-0.13,1.38-0.13,2.44,0c1.36,0.13,2.02,0.2,1.98,0.2c8.3,0,12.46-2.56,12.46-7.69c0-2.43-1.82-4.67-5.47-6.7
		c-5.93-3.27-9.34-5.28-10.22-6.04c-3.65-3.14-5.47-7.25-5.47-12.34c0-6.63,2.48-11.81,7.45-15.52c4.48-3.32,10.15-4.97,17-4.97
		c0.62,0,1.07,0.29,1.35,0.86c0.29,0.58,0.83,2.37,1.65,5.37c0.81,3.01,1.22,4.82,1.22,5.44c0,0.49-0.42,0.8-1.25,0.93
		c-2.81,0.4-5.65,0.77-8.5,1.13c-3.38,0.93-5.08,2.79-5.08,5.57c0,1.99,1.78,4,5.34,6.04c5.27,2.96,8.61,5.11,10.02,6.43
		C782.43,227.46,784.23,231.89,784.23,237.28z"/>
</g>
<g>
	<path class="st4" d="M385.55,222.21c0,0.31-0.28,0.66-0.83,1.05c-5.32,3.97-10.9,9.47-16.73,16.52
		c-5.16,6.26-9.1,12.16-11.82,17.68c-0.24,0.43-0.53,0.47-0.89,0.12c-1.22-1.09-3.35-2.28-6.38-3.56c-1.42-0.58-4.14-1.5-8.16-2.74
		c-0.39-0.16-0.43-0.56-0.12-1.23c1.34-2.88,3.69-7.41,7.04-13.6c3.98-6.46,8.47-10.93,13.48-13.42c-4.57-2.22-8.1-5.68-10.58-10.39
		c-1.34-3.5-3.67-8.75-6.98-15.76c-0.32-0.54-0.2-0.91,0.35-1.11c6.15-2.14,11.63-4.2,16.44-6.19c0.71,6.5,3.33,12.35,7.86,17.57
		c2.99,3.38,8.49,7.98,16.49,13.77C385.27,221.31,385.55,221.74,385.55,222.21z"/>
</g>
<g>
	<path d="M461.41,92.29c0,0.38-4.76,10.58-14.29,30.59c-3.19,6.96-8.07,17.35-14.65,31.17c-0.62,1.29-1.26,1.93-1.93,1.93h-12.86
		c-0.91,0-1.64-0.64-2.21-1.93c-3.53-8.29-8.6-21.35-15.22-39.17c-3.29,8.77-8.41,21.83-15.36,39.17c-0.52,1.29-1.24,1.93-2.14,1.93
		h-12.79c-0.71,0-1.38-0.64-2-1.93c-3.29-6.91-8.22-17.3-14.79-31.17c-9.1-18.97-13.65-29.16-13.65-30.59
		c0-3.91,0.12-9.79,0.36-17.66c0.24-7.86,0.36-13.75,0.36-17.66c0-0.86,0.6-1.29,1.79-1.29c0.86,0,2.15,0.07,3.89,0.21
		c1.74,0.14,3.04,0.21,3.89,0.21c0.81,0,2.02-0.05,3.64-0.14c1.62-0.09,2.83-0.14,3.64-0.14c1,0,1.5,0.36,1.5,1.07
		c0,3.86-0.23,9.69-0.68,17.48c-0.45,7.79-0.68,13.62-0.68,17.48c0,2.43,4.81,13.44,14.43,33.02c3.19,6.48,4.93,9.72,5.22,9.72
		c0.09-0.05,0.21-0.21,0.36-0.5c0.57-1.1,1.79-4.15,3.64-9.15c3.43-9.29,6.95-19.85,10.57-31.67c0.14-1.19,0.21-4.96,0.21-11.29
		c0-2.81-0.08-7.02-0.25-12.62c-0.17-5.6-0.25-9.8-0.25-12.62c0-0.71,0.5-1.07,1.5-1.07c0.9,0,2.26,0.07,4.07,0.21
		c1.81,0.14,3.19,0.21,4.14,0.21c0.81,0,2.02-0.07,3.64-0.21c1.62-0.14,2.83-0.21,3.64-0.21c1.1,0,1.64,0.38,1.64,1.14
		c0,3-0.1,7.52-0.29,13.55c-0.19,6.03-0.29,10.54-0.29,13.55c0,4.91,0.02,7.89,0.07,8.94c0.14,2.38,3.74,12.84,10.79,31.38
		c0.76,2.1,2,5.1,3.72,9.01c0.05,0.19,0.14,0.36,0.29,0.5c0.29,0,1.98-3.17,5.07-9.51c9.38-19.2,14.08-30.04,14.08-32.52
		c0-3.91-0.21-9.74-0.64-17.51c-0.43-7.77-0.64-13.58-0.64-17.44c0-0.71,0.19-1.07,0.57-1.07c0.95,0,2.37,0.07,4.25,0.21
		c1.88,0.14,3.3,0.21,4.25,0.21c0.86,0,2.17-0.07,3.93-0.21c1.76-0.14,3.1-0.21,4-0.21c1,0,1.57,0.29,1.71,0.86c0-0.05,0,0.62,0,2
		c0,3.77,0.12,9.39,0.36,16.87C461.29,82.9,461.41,88.53,461.41,92.29z"/>
	<path d="M491.56,70.49c0,5.86-3.26,8.79-9.79,8.79c-6.62,0-9.93-2.93-9.93-8.79c0-2.62,1.02-4.79,3.07-6.5
		c1.9-1.62,4.19-2.43,6.86-2.43c2.67,0,4.97,0.83,6.9,2.5C490.6,65.72,491.56,67.87,491.56,70.49z M491.06,89.86
		c0,3.67-0.23,9.21-0.68,16.62c-0.45,7.41-0.68,12.97-0.68,16.69c0,3.48,0.07,8.69,0.21,15.62c0.14,6.93,0.21,12.12,0.21,15.55
		c0,1-0.43,1.5-1.29,1.5h-13.93c-1,0-1.5-0.98-1.5-2.93c0-3.29,0.08-8.23,0.25-14.83c0.17-6.6,0.25-11.57,0.25-14.9
		c0-3.72-0.27-9.29-0.82-16.73c-0.55-7.43-0.82-13.01-0.82-16.73c0-0.81,0.5-1.22,1.5-1.22c0.86,0,2.18,0.12,3.97,0.36
		c1.79,0.24,3.13,0.36,4.04,0.36c0.9,0,2.25-0.12,4.04-0.36c1.79-0.24,3.13-0.36,4.04-0.36C490.66,88.5,491.06,88.95,491.06,89.86z"
		/>
	<path d="M568.15,154.55c0,1.05-0.48,1.57-1.43,1.57c-1.57,0-3.92-0.02-7.04-0.07c-3.12-0.05-5.46-0.07-7.04-0.07
		c-0.86,0-1.29-0.69-1.29-2.07c0-2.33,0.07-5.88,0.21-10.65c0.14-4.76,0.21-8.34,0.21-10.72c0-1.91-0.02-4.75-0.07-8.54
		c-0.05-3.79-0.07-6.64-0.07-8.54c0-5.43-0.79-9.27-2.36-11.51c-1.91-2.67-5.43-4-10.57-4c-2.38,0-5.69,1.33-9.93,4
		c-4.48,2.81-6.72,5.31-6.72,7.51v42.89c0,1.19-0.45,1.79-1.36,1.79c-1.53,0-3.81-0.02-6.86-0.07c-3.05-0.05-5.33-0.07-6.86-0.07
		c-1,0-1.5-0.55-1.5-1.64c0-3.76,0.06-9.41,0.18-16.94c0.12-7.53,0.18-13.2,0.18-17.01c0-10.15-1.07-19.51-3.21-28.09
		c-0.14-0.43-0.21-0.74-0.21-0.93c0-0.48,0.31-0.81,0.93-1c0.33-0.05,3.06-0.49,8.18-1.32c5.12-0.83,7.8-1.25,8.04-1.25
		c0.29,0,0.47,0.38,0.57,1.14c0.24,2.96,0.79,5.93,1.64,8.94c2.48-1.95,5.74-4.38,9.79-7.29c5-3.05,9.83-4.57,14.5-4.57
		c8.95,0,15.07,2.6,18.36,7.79c2.43,3.81,3.64,9.98,3.64,18.51c0,1.48-0.04,3.74-0.11,6.79c-0.07,3.05-0.11,5.34-0.11,6.86
		c0,3.19,0.05,7.96,0.14,14.3C568.11,146.59,568.15,151.36,568.15,154.55z"/>
	<path d="M650.39,56.26c0,6.15-0.27,15.36-0.82,27.63c-0.55,12.27-0.82,21.46-0.82,27.56c0,18.82,0.4,33.07,1.21,42.75l0.07,0.93
		c0.05,0.48-0.6,0.79-1.93,0.93c-0.91,0.09-2.19,0.09-3.86,0c-2-0.14-2.93-0.21-2.79-0.21c-0.71,0-1.76,0.07-3.14,0.21
		c-1.38,0.14-2.43,0.21-3.14,0.21c-0.67,0-1.06-1.66-1.18-4.97c-0.12-3.31-0.3-4.99-0.54-5.04c-0.29,0.14-0.64,0.45-1.07,0.93
		c-6.53,7.05-14.03,10.58-22.51,10.58c-9.62,0-17.53-3.67-23.72-11.01c-5.86-6.91-8.79-15.25-8.79-25.02
		c0-10.15,2.95-18.68,8.86-25.59c6.19-7.24,14.26-10.86,24.22-10.86c6,0,11.24,1.76,15.72,5.29c2.05,1.76,4.07,3.55,6.07,5.36
		c0.38-0.14,0.57-0.48,0.57-1V71.77c0-1.57-0.07-3.96-0.21-7.15c-0.14-3.19-0.21-5.6-0.21-7.22c0-1.14,0.38-1.72,1.14-1.72
		c1.76,0,4.38-0.15,7.86-0.46c3.48-0.31,6.07-0.46,7.79-0.46C649.99,54.76,650.39,55.26,650.39,56.26z M632.53,121.31
		c0-5.72-1.76-10.75-5.29-15.08c-3.76-4.62-8.43-6.93-14-6.93c-5.86,0-10.69,2.29-14.5,6.86c-3.62,4.29-5.43,9.44-5.43,15.44
		c0,5.72,1.88,10.7,5.64,14.94c3.86,4.48,8.62,6.72,14.29,6.72c5.72,0,10.43-2.26,14.15-6.79
		C630.81,132.22,632.53,127.17,632.53,121.31z"/>
	<path d="M727.84,121.17c0,9.96-3.26,18.47-9.79,25.52c-6.67,7.29-14.93,10.94-24.79,10.94c-9.91,0-18.2-3.62-24.86-10.87
		c-6.53-7-9.79-15.49-9.79-25.45c0-9.96,3.26-18.44,9.79-25.45c6.72-7.15,15-10.72,24.86-10.72c9.81,0,18.05,3.57,24.72,10.72
		C724.55,102.82,727.84,111.26,727.84,121.17z M712.77,121.31c0-5.81-1.79-10.77-5.36-14.87c-3.72-4.34-8.43-6.5-14.15-6.5
		s-10.46,2.14-14.22,6.43c-3.57,4.15-5.36,9.13-5.36,14.94c0,5.72,1.81,10.68,5.43,14.87c3.81,4.43,8.53,6.65,14.15,6.65
		c5.67,0,10.38-2.22,14.15-6.65C710.98,131.99,712.77,127.03,712.77,121.31z"/>
	<path d="M833.8,104.73c0,8.96-0.5,14.58-1.5,16.87c-1.33,3.15-4.86,9.41-10.57,18.8c-6.19,10.15-9.93,15.39-11.22,15.73
		c-0.38,0.1-2.29,0.14-5.72,0.14c-2.33,0-3.69-0.05-4.07-0.14c-1.48-0.38-7.15-8.58-17-24.59c-2.71,4.48-5.46,8.98-8.22,13.51
		c-4.48,7.05-7.34,10.75-8.57,11.08c-0.38,0.1-1.95,0.14-4.72,0.14c-2.81,0-4.41-0.05-4.79-0.14c-1.48-0.33-5.22-5.53-11.22-15.58
		c-5.67-9.48-9.1-15.8-10.29-18.94c-1.1-2.86-1.64-8.48-1.64-16.87c0-7,0.24-11.79,0.71-14.37c0.24-1.05,0.83-1.57,1.79-1.57
		c1.43,0,3.57,0.05,6.43,0.14c2.86,0.1,5,0.14,6.43,0.14c0.9,0,1.36,0.74,1.36,2.22c0,1.05-0.05,2.63-0.14,4.75
		c-0.1,2.12-0.14,3.71-0.14,4.75c0,8.29,0.24,14.15,0.71,17.58c0.43,3,4.17,9.29,11.22,18.87c0.86,1.14,1.36,1.72,1.5,1.72
		c0.14,0,0.57-0.52,1.29-1.57c6.19-9.01,9.72-15.15,10.57-18.44c0.57-2.29,0.86-7.41,0.86-15.37c0-1.62-0.1-4.03-0.29-7.22
		c-0.19-3.19-0.29-5.58-0.29-7.15c0-1.05,0.43-1.57,1.29-1.57h13.65c0.76,0,1.14,0.62,1.14,1.86c0,1.53-0.07,3.82-0.21,6.9
		c-0.14,3.07-0.21,5.37-0.21,6.9c0,8.44,0.14,13.31,0.43,14.62c0.29,1.31,2.52,5.05,6.72,11.22c4.19,6.17,6.6,9.26,7.22,9.26
		c0.14,0,0.57-0.57,1.29-1.72c6.05-9.2,9.31-15.34,9.79-18.44c0.43-2.57,0.64-6.93,0.64-13.08c0-1.81-0.14-4.42-0.43-7.83
		c-0.29-3.41-0.43-5.85-0.43-7.33c0-0.71,0.48-1.07,1.43-1.07c1.43,0,3.55-0.05,6.36-0.14c2.81-0.09,4.93-0.14,6.36-0.14
		c1.05,0,1.69,0.48,1.93,1.43C833.61,91.93,833.8,96.82,833.8,104.73z"/>
	<path d="M878.03,133.96c0,7.1-2.83,12.79-8.5,17.08c-5.14,3.91-11.41,5.86-18.79,5.86c-2.86,0-4.48-0.07-4.86-0.21
		c-0.81-0.38-1.21-1.55-1.21-3.5c0-1.05-0.13-2.62-0.39-4.72c-0.26-2.1-0.39-3.65-0.39-4.65c0-0.62,0.43-1.02,1.29-1.21
		c0.62-0.14,1.5-0.14,2.64,0c1.48,0.14,2.19,0.21,2.14,0.21c9,0,13.5-2.76,13.5-8.29c0-2.62-1.98-5.03-5.93-7.22
		c-6.43-3.53-10.12-5.69-11.07-6.5c-3.95-3.38-5.93-7.81-5.93-13.29c0-7.15,2.69-12.72,8.07-16.73c4.86-3.57,11-5.36,18.43-5.36
		c0.67,0,1.15,0.31,1.46,0.93c0.31,0.62,0.9,2.55,1.79,5.79c0.88,3.24,1.32,5.19,1.32,5.86c0,0.53-0.45,0.86-1.36,1
		c-3.05,0.43-6.12,0.83-9.22,1.22c-3.67,1-5.5,3-5.5,6c0,2.14,1.93,4.31,5.79,6.5c5.72,3.19,9.33,5.5,10.86,6.93
		C876.07,123.38,878.03,128.15,878.03,133.96z"/>
</g>
<g>
</g>
<g>
</g>
<g>
</g>
<g>
</g>
<g>
</g>
<g>
</g>
</svg>
